<?xml version="1.0" standalone="no"?>
 <!DOCTYPE svg PUBLIC "-//W3C//DTD SVG 1.1//EN" 
 "http://www.w3.org/Graphics/SVG/1.1/DTD/svg11.dtd"> 
<svg xmlns="http://www.w3.org/2000/svg" version="1.1" 
    width="29.7002cm" height="21.0007cm" viewBox="0 0 116930 82680 ">
<title>SVG Picture created as pci-side-F_SilkS.svg date 2019/08/18 17:27:27 </title>
  <desc>Picture generated by PCBNEW </desc>
<g style="fill:#000000; fill-opacity:1;stroke:#000000; stroke-opacity:1;
stroke-linecap:round; stroke-linejoin:round; "
 transform="translate(0 0) scale(1 1)">
</g>
<g style="fill:#000000; fill-opacity:0.0; 
stroke:#000000; stroke-width:-0.000393701; stroke-opacity:1; 
stroke-linecap:round; stroke-linejoin:round;">
</g>
<g style="fill:#000000; fill-opacity:0.0; 
stroke:#000000; stroke-width:39.3701; stroke-opacity:1; 
stroke-linecap:round; stroke-linejoin:round;">
</g>
<g style="fill:#000000; fill-opacity:0.0; 
stroke:#000000; stroke-width:59.0551; stroke-opacity:1; 
stroke-linecap:round; stroke-linejoin:round;">
<rect x="69685.9" y="65357.2" width="42519.7" height="12598.4" rx="0" />
</g>
<g style="fill:#000000; fill-opacity:0.0; 
stroke:#000000; stroke-width:39.3701; stroke-opacity:1; 
stroke-linecap:round; stroke-linejoin:round;">
</g>
<g style="fill:#000000; fill-opacity:0.0; 
stroke:#000000; stroke-width:59.0551; stroke-opacity:1; 
stroke-linecap:round; stroke-linejoin:round;">
<rect x="3937.01" y="3937.01" width="109056" height="74806" rx="0" />
</g>
<g style="fill:#000000; fill-opacity:0.0; 
stroke:#000000; stroke-width:39.3701; stroke-opacity:1; 
stroke-linecap:round; stroke-linejoin:round;">
</g>
<g style="fill:#000000; fill-opacity:0.0; 
stroke:#000000; stroke-width:59.0551; stroke-opacity:1; 
stroke-linecap:round; stroke-linejoin:round;">
<rect x="4724.41" y="4724.41" width="107481" height="73231.2" rx="0" />
</g>
<g style="fill:#000000; fill-opacity:0.0; 
stroke:#000000; stroke-width:39.3701; stroke-opacity:1; 
stroke-linecap:round; stroke-linejoin:round;">
</g>
<g style="fill:#000000; fill-opacity:0.0; 
stroke:#000000; stroke-width:59.0551; stroke-opacity:1; 
stroke-linecap:round; stroke-linejoin:round;">
<path d="M23622 4724
L23622 3937
" />
</g>
<g style="fill:#000000; fill-opacity:0.0; 
stroke:#000000; stroke-width:39.3701; stroke-opacity:1; 
stroke-linecap:round; stroke-linejoin:round;">
</g>
<g style="fill:#000000; fill-opacity:0.0; 
stroke:#000000; stroke-width:59.0551; stroke-opacity:1; 
stroke-linecap:round; stroke-linejoin:round;">
<path d="M43307 4724
L43307 3937
" />
</g>
<g style="fill:#000000; fill-opacity:0.0; 
stroke:#000000; stroke-width:39.3701; stroke-opacity:1; 
stroke-linecap:round; stroke-linejoin:round;">
</g>
<g style="fill:#000000; fill-opacity:0.0; 
stroke:#000000; stroke-width:59.0551; stroke-opacity:1; 
stroke-linecap:round; stroke-linejoin:round;">
<path d="M62992 4724
L62992 3937
" />
</g>
<g style="fill:#000000; fill-opacity:0.0; 
stroke:#000000; stroke-width:39.3701; stroke-opacity:1; 
stroke-linecap:round; stroke-linejoin:round;">
</g>
<g style="fill:#000000; fill-opacity:0.0; 
stroke:#000000; stroke-width:59.0551; stroke-opacity:1; 
stroke-linecap:round; stroke-linejoin:round;">
<path d="M82677 4724
L82677 3937
" />
</g>
<g style="fill:#000000; fill-opacity:0.0; 
stroke:#000000; stroke-width:39.3701; stroke-opacity:1; 
stroke-linecap:round; stroke-linejoin:round;">
</g>
<g style="fill:#000000; fill-opacity:0.0; 
stroke:#000000; stroke-width:59.0551; stroke-opacity:1; 
stroke-linecap:round; stroke-linejoin:round;">
<path d="M102362 4724
L102362 3937
" />
</g>
<g style="fill:#000000; fill-opacity:0.0; 
stroke:#000000; stroke-width:39.3701; stroke-opacity:1; 
stroke-linecap:round; stroke-linejoin:round;">
</g>
<g style="fill:#000000; fill-opacity:0.0; 
stroke:#000000; stroke-width:59.0551; stroke-opacity:1; 
stroke-linecap:round; stroke-linejoin:round;">
<path d="M14199 4562
L13906 4562
" />
<path d="M14052 4562
L14052 4050
L14004 4123
L13955 4172
L13906 4196
" />
</g>
<g style="fill:#000000; fill-opacity:0.0; 
stroke:#000000; stroke-width:39.3701; stroke-opacity:1; 
stroke-linecap:round; stroke-linejoin:round;">
</g>
<g style="fill:#000000; fill-opacity:0.0; 
stroke:#000000; stroke-width:59.0551; stroke-opacity:1; 
stroke-linecap:round; stroke-linejoin:round;">
<path d="M33591 4099
L33615 4074
L33664 4050
L33786 4050
L33835 4074
L33859 4099
L33884 4147
L33884 4196
L33859 4269
L33567 4562
L33884 4562
" />
</g>
<g style="fill:#000000; fill-opacity:0.0; 
stroke:#000000; stroke-width:39.3701; stroke-opacity:1; 
stroke-linecap:round; stroke-linejoin:round;">
</g>
<g style="fill:#000000; fill-opacity:0.0; 
stroke:#000000; stroke-width:59.0551; stroke-opacity:1; 
stroke-linecap:round; stroke-linejoin:round;">
<path d="M53252 4050
L53569 4050
L53398 4245
L53471 4245
L53520 4269
L53544 4294
L53569 4342
L53569 4464
L53544 4513
L53520 4537
L53471 4562
L53325 4562
L53276 4537
L53252 4513
" />
</g>
<g style="fill:#000000; fill-opacity:0.0; 
stroke:#000000; stroke-width:39.3701; stroke-opacity:1; 
stroke-linecap:round; stroke-linejoin:round;">
</g>
<g style="fill:#000000; fill-opacity:0.0; 
stroke:#000000; stroke-width:59.0551; stroke-opacity:1; 
stroke-linecap:round; stroke-linejoin:round;">
<path d="M73205 4221
L73205 4562
" />
<path d="M73083 4026
L72961 4391
L73278 4391
" />
</g>
<g style="fill:#000000; fill-opacity:0.0; 
stroke:#000000; stroke-width:39.3701; stroke-opacity:1; 
stroke-linecap:round; stroke-linejoin:round;">
</g>
<g style="fill:#000000; fill-opacity:0.0; 
stroke:#000000; stroke-width:59.0551; stroke-opacity:1; 
stroke-linecap:round; stroke-linejoin:round;">
<path d="M92914 4050
L92671 4050
L92646 4294
L92671 4269
L92719 4245
L92841 4245
L92890 4269
L92914 4294
L92939 4342
L92939 4464
L92914 4513
L92890 4537
L92841 4562
L92719 4562
L92671 4537
L92646 4513
" />
</g>
<g style="fill:#000000; fill-opacity:0.0; 
stroke:#000000; stroke-width:39.3701; stroke-opacity:1; 
stroke-linecap:round; stroke-linejoin:round;">
</g>
<g style="fill:#000000; fill-opacity:0.0; 
stroke:#000000; stroke-width:59.0551; stroke-opacity:1; 
stroke-linecap:round; stroke-linejoin:round;">
<path d="M112575 4050
L112477 4050
L112429 4074
L112404 4099
L112356 4172
L112331 4269
L112331 4464
L112356 4513
L112380 4537
L112429 4562
L112526 4562
L112575 4537
L112599 4513
L112624 4464
L112624 4342
L112599 4294
L112575 4269
L112526 4245
L112429 4245
L112380 4269
L112356 4294
L112331 4342
" />
</g>
<g style="fill:#000000; fill-opacity:0.0; 
stroke:#000000; stroke-width:39.3701; stroke-opacity:1; 
stroke-linecap:round; stroke-linejoin:round;">
</g>
<g style="fill:#000000; fill-opacity:0.0; 
stroke:#000000; stroke-width:59.0551; stroke-opacity:1; 
stroke-linecap:round; stroke-linejoin:round;">
<path d="M23622 77955
L23622 78742
" />
</g>
<g style="fill:#000000; fill-opacity:0.0; 
stroke:#000000; stroke-width:39.3701; stroke-opacity:1; 
stroke-linecap:round; stroke-linejoin:round;">
</g>
<g style="fill:#000000; fill-opacity:0.0; 
stroke:#000000; stroke-width:59.0551; stroke-opacity:1; 
stroke-linecap:round; stroke-linejoin:round;">
<path d="M43307 77955
L43307 78742
" />
</g>
<g style="fill:#000000; fill-opacity:0.0; 
stroke:#000000; stroke-width:39.3701; stroke-opacity:1; 
stroke-linecap:round; stroke-linejoin:round;">
</g>
<g style="fill:#000000; fill-opacity:0.0; 
stroke:#000000; stroke-width:59.0551; stroke-opacity:1; 
stroke-linecap:round; stroke-linejoin:round;">
<path d="M62992 77955
L62992 78742
" />
</g>
<g style="fill:#000000; fill-opacity:0.0; 
stroke:#000000; stroke-width:39.3701; stroke-opacity:1; 
stroke-linecap:round; stroke-linejoin:round;">
</g>
<g style="fill:#000000; fill-opacity:0.0; 
stroke:#000000; stroke-width:59.0551; stroke-opacity:1; 
stroke-linecap:round; stroke-linejoin:round;">
<path d="M82677 77955
L82677 78742
" />
</g>
<g style="fill:#000000; fill-opacity:0.0; 
stroke:#000000; stroke-width:39.3701; stroke-opacity:1; 
stroke-linecap:round; stroke-linejoin:round;">
</g>
<g style="fill:#000000; fill-opacity:0.0; 
stroke:#000000; stroke-width:59.0551; stroke-opacity:1; 
stroke-linecap:round; stroke-linejoin:round;">
<path d="M102362 77955
L102362 78742
" />
</g>
<g style="fill:#000000; fill-opacity:0.0; 
stroke:#000000; stroke-width:39.3701; stroke-opacity:1; 
stroke-linecap:round; stroke-linejoin:round;">
</g>
<g style="fill:#000000; fill-opacity:0.0; 
stroke:#000000; stroke-width:59.0551; stroke-opacity:1; 
stroke-linecap:round; stroke-linejoin:round;">
<path d="M14199 78580
L13906 78580
" />
<path d="M14052 78580
L14052 78069
L14004 78142
L13955 78190
L13906 78215
" />
</g>
<g style="fill:#000000; fill-opacity:0.0; 
stroke:#000000; stroke-width:39.3701; stroke-opacity:1; 
stroke-linecap:round; stroke-linejoin:round;">
</g>
<g style="fill:#000000; fill-opacity:0.0; 
stroke:#000000; stroke-width:59.0551; stroke-opacity:1; 
stroke-linecap:round; stroke-linejoin:round;">
<path d="M33591 78117
L33615 78093
L33664 78069
L33786 78069
L33835 78093
L33859 78117
L33884 78166
L33884 78215
L33859 78288
L33567 78580
L33884 78580
" />
</g>
<g style="fill:#000000; fill-opacity:0.0; 
stroke:#000000; stroke-width:39.3701; stroke-opacity:1; 
stroke-linecap:round; stroke-linejoin:round;">
</g>
<g style="fill:#000000; fill-opacity:0.0; 
stroke:#000000; stroke-width:59.0551; stroke-opacity:1; 
stroke-linecap:round; stroke-linejoin:round;">
<path d="M53252 78069
L53569 78069
L53398 78263
L53471 78263
L53520 78288
L53544 78312
L53569 78361
L53569 78483
L53544 78532
L53520 78556
L53471 78580
L53325 78580
L53276 78556
L53252 78532
" />
</g>
<g style="fill:#000000; fill-opacity:0.0; 
stroke:#000000; stroke-width:39.3701; stroke-opacity:1; 
stroke-linecap:round; stroke-linejoin:round;">
</g>
<g style="fill:#000000; fill-opacity:0.0; 
stroke:#000000; stroke-width:59.0551; stroke-opacity:1; 
stroke-linecap:round; stroke-linejoin:round;">
<path d="M73205 78239
L73205 78580
" />
<path d="M73083 78044
L72961 78410
L73278 78410
" />
</g>
<g style="fill:#000000; fill-opacity:0.0; 
stroke:#000000; stroke-width:39.3701; stroke-opacity:1; 
stroke-linecap:round; stroke-linejoin:round;">
</g>
<g style="fill:#000000; fill-opacity:0.0; 
stroke:#000000; stroke-width:59.0551; stroke-opacity:1; 
stroke-linecap:round; stroke-linejoin:round;">
<path d="M92914 78069
L92671 78069
L92646 78312
L92671 78288
L92719 78263
L92841 78263
L92890 78288
L92914 78312
L92939 78361
L92939 78483
L92914 78532
L92890 78556
L92841 78580
L92719 78580
L92671 78556
L92646 78532
" />
</g>
<g style="fill:#000000; fill-opacity:0.0; 
stroke:#000000; stroke-width:39.3701; stroke-opacity:1; 
stroke-linecap:round; stroke-linejoin:round;">
</g>
<g style="fill:#000000; fill-opacity:0.0; 
stroke:#000000; stroke-width:59.0551; stroke-opacity:1; 
stroke-linecap:round; stroke-linejoin:round;">
<path d="M112575 78069
L112477 78069
L112429 78093
L112404 78117
L112356 78190
L112331 78288
L112331 78483
L112356 78532
L112380 78556
L112429 78580
L112526 78580
L112575 78556
L112599 78532
L112624 78483
L112624 78361
L112599 78312
L112575 78288
L112526 78263
L112429 78263
L112380 78288
L112356 78312
L112331 78361
" />
</g>
<g style="fill:#000000; fill-opacity:0.0; 
stroke:#000000; stroke-width:39.3701; stroke-opacity:1; 
stroke-linecap:round; stroke-linejoin:round;">
</g>
<g style="fill:#000000; fill-opacity:0.0; 
stroke:#000000; stroke-width:59.0551; stroke-opacity:1; 
stroke-linecap:round; stroke-linejoin:round;">
<path d="M3937 23622
L4724 23622
" />
</g>
<g style="fill:#000000; fill-opacity:0.0; 
stroke:#000000; stroke-width:39.3701; stroke-opacity:1; 
stroke-linecap:round; stroke-linejoin:round;">
</g>
<g style="fill:#000000; fill-opacity:0.0; 
stroke:#000000; stroke-width:59.0551; stroke-opacity:1; 
stroke-linecap:round; stroke-linejoin:round;">
<path d="M3937 43307
L4724 43307
" />
</g>
<g style="fill:#000000; fill-opacity:0.0; 
stroke:#000000; stroke-width:39.3701; stroke-opacity:1; 
stroke-linecap:round; stroke-linejoin:round;">
</g>
<g style="fill:#000000; fill-opacity:0.0; 
stroke:#000000; stroke-width:59.0551; stroke-opacity:1; 
stroke-linecap:round; stroke-linejoin:round;">
<path d="M3937 62992
L4724 62992
" />
</g>
<g style="fill:#000000; fill-opacity:0.0; 
stroke:#000000; stroke-width:39.3701; stroke-opacity:1; 
stroke-linecap:round; stroke-linejoin:round;">
</g>
<g style="fill:#000000; fill-opacity:0.0; 
stroke:#000000; stroke-width:59.0551; stroke-opacity:1; 
stroke-linecap:round; stroke-linejoin:round;">
<path d="M4208 13864
L4452 13864
" />
<path d="M4160 14011
L4330 13499
L4501 14011
" />
</g>
<g style="fill:#000000; fill-opacity:0.0; 
stroke:#000000; stroke-width:39.3701; stroke-opacity:1; 
stroke-linecap:round; stroke-linejoin:round;">
</g>
<g style="fill:#000000; fill-opacity:0.0; 
stroke:#000000; stroke-width:59.0551; stroke-opacity:1; 
stroke-linecap:round; stroke-linejoin:round;">
<path d="M4367 33428
L4440 33452
L4464 33476
L4489 33525
L4489 33598
L4464 33647
L4440 33671
L4391 33696
L4196 33696
L4196 33184
L4367 33184
L4416 33208
L4440 33233
L4464 33281
L4464 33330
L4440 33379
L4416 33403
L4367 33428
L4196 33428
" />
</g>
<g style="fill:#000000; fill-opacity:0.0; 
stroke:#000000; stroke-width:39.3701; stroke-opacity:1; 
stroke-linecap:round; stroke-linejoin:round;">
</g>
<g style="fill:#000000; fill-opacity:0.0; 
stroke:#000000; stroke-width:59.0551; stroke-opacity:1; 
stroke-linecap:round; stroke-linejoin:round;">
<path d="M4489 53332
L4464 53356
L4391 53381
L4342 53381
L4269 53356
L4221 53308
L4196 53259
L4172 53161
L4172 53088
L4196 52991
L4221 52942
L4269 52893
L4342 52869
L4391 52869
L4464 52893
L4489 52918
" />
</g>
<g style="fill:#000000; fill-opacity:0.0; 
stroke:#000000; stroke-width:39.3701; stroke-opacity:1; 
stroke-linecap:round; stroke-linejoin:round;">
</g>
<g style="fill:#000000; fill-opacity:0.0; 
stroke:#000000; stroke-width:59.0551; stroke-opacity:1; 
stroke-linecap:round; stroke-linejoin:round;">
<path d="M4196 73066
L4196 72554
L4318 72554
L4391 72578
L4440 72627
L4464 72676
L4489 72773
L4489 72846
L4464 72944
L4440 72993
L4391 73041
L4318 73066
L4196 73066
" />
</g>
<g style="fill:#000000; fill-opacity:0.0; 
stroke:#000000; stroke-width:39.3701; stroke-opacity:1; 
stroke-linecap:round; stroke-linejoin:round;">
</g>
<g style="fill:#000000; fill-opacity:0.0; 
stroke:#000000; stroke-width:59.0551; stroke-opacity:1; 
stroke-linecap:round; stroke-linejoin:round;">
<path d="M112992 23622
L112205 23622
" />
</g>
<g style="fill:#000000; fill-opacity:0.0; 
stroke:#000000; stroke-width:39.3701; stroke-opacity:1; 
stroke-linecap:round; stroke-linejoin:round;">
</g>
<g style="fill:#000000; fill-opacity:0.0; 
stroke:#000000; stroke-width:59.0551; stroke-opacity:1; 
stroke-linecap:round; stroke-linejoin:round;">
<path d="M112992 43307
L112205 43307
" />
</g>
<g style="fill:#000000; fill-opacity:0.0; 
stroke:#000000; stroke-width:39.3701; stroke-opacity:1; 
stroke-linecap:round; stroke-linejoin:round;">
</g>
<g style="fill:#000000; fill-opacity:0.0; 
stroke:#000000; stroke-width:59.0551; stroke-opacity:1; 
stroke-linecap:round; stroke-linejoin:round;">
<path d="M112992 62992
L112205 62992
" />
</g>
<g style="fill:#000000; fill-opacity:0.0; 
stroke:#000000; stroke-width:39.3701; stroke-opacity:1; 
stroke-linecap:round; stroke-linejoin:round;">
</g>
<g style="fill:#000000; fill-opacity:0.0; 
stroke:#000000; stroke-width:59.0551; stroke-opacity:1; 
stroke-linecap:round; stroke-linejoin:round;">
<path d="M112477 13864
L112721 13864
" />
<path d="M112428 14011
L112599 13499
L112769 14011
" />
</g>
<g style="fill:#000000; fill-opacity:0.0; 
stroke:#000000; stroke-width:39.3701; stroke-opacity:1; 
stroke-linecap:round; stroke-linejoin:round;">
</g>
<g style="fill:#000000; fill-opacity:0.0; 
stroke:#000000; stroke-width:59.0551; stroke-opacity:1; 
stroke-linecap:round; stroke-linejoin:round;">
<path d="M112635 33428
L112708 33452
L112733 33476
L112757 33525
L112757 33598
L112733 33647
L112708 33671
L112660 33696
L112465 33696
L112465 33184
L112635 33184
L112684 33208
L112708 33233
L112733 33281
L112733 33330
L112708 33379
L112684 33403
L112635 33428
L112465 33428
" />
</g>
<g style="fill:#000000; fill-opacity:0.0; 
stroke:#000000; stroke-width:39.3701; stroke-opacity:1; 
stroke-linecap:round; stroke-linejoin:round;">
</g>
<g style="fill:#000000; fill-opacity:0.0; 
stroke:#000000; stroke-width:59.0551; stroke-opacity:1; 
stroke-linecap:round; stroke-linejoin:round;">
<path d="M112757 53332
L112733 53356
L112660 53381
L112611 53381
L112538 53356
L112489 53308
L112465 53259
L112440 53161
L112440 53088
L112465 52991
L112489 52942
L112538 52893
L112611 52869
L112660 52869
L112733 52893
L112757 52918
" />
</g>
<g style="fill:#000000; fill-opacity:0.0; 
stroke:#000000; stroke-width:39.3701; stroke-opacity:1; 
stroke-linecap:round; stroke-linejoin:round;">
</g>
<g style="fill:#000000; fill-opacity:0.0; 
stroke:#000000; stroke-width:59.0551; stroke-opacity:1; 
stroke-linecap:round; stroke-linejoin:round;">
<path d="M112465 73066
L112465 72554
L112587 72554
L112660 72578
L112708 72627
L112733 72676
L112757 72773
L112757 72846
L112733 72944
L112708 72993
L112660 73041
L112587 73066
L112465 73066
" />
</g>
<g style="fill:#000000; fill-opacity:0.0; 
stroke:#000000; stroke-width:39.3701; stroke-opacity:1; 
stroke-linecap:round; stroke-linejoin:round;">
</g>
<g style="fill:#000000; fill-opacity:0.0; 
stroke:#000000; stroke-width:59.0551; stroke-opacity:1; 
stroke-linecap:round; stroke-linejoin:round;">
<path d="M78911 76293
L78911 75703
L79051 75703
L79136 75731
L79192 75787
L79220 75843
L79248 75956
L79248 76040
L79220 76153
L79192 76209
L79136 76265
L79051 76293
L78911 76293
" />
<path d="M79754 76293
L79754 75984
L79726 75928
L79670 75899
L79557 75899
L79501 75928
" />
<path d="M79754 76265
L79698 76293
L79557 76293
L79501 76265
L79473 76209
L79473 76153
L79501 76096
L79557 76068
L79698 76068
L79754 76040
" />
<path d="M79951 75899
L80176 75899
" />
<path d="M80036 75703
L80036 76209
L80064 76265
L80120 76293
L80176 76293
" />
<path d="M80598 76265
L80542 76293
L80429 76293
L80373 76265
L80345 76209
L80345 75984
L80373 75928
L80429 75899
L80542 75899
L80598 75928
L80626 75984
L80626 76040
L80345 76096
" />
<path d="M80879 76237
L80907 76265
L80879 76293
L80851 76265
L80879 76237
L80879 76293
" />
<path d="M80879 75928
L80907 75956
L80879 75984
L80851 75956
L80879 75928
L80879 75984
" />
</g>
<g style="fill:#000000; fill-opacity:0.0; 
stroke:#000000; stroke-width:39.3701; stroke-opacity:1; 
stroke-linecap:round; stroke-linejoin:round;">
</g>
<g style="fill:#000000; fill-opacity:0.0; 
stroke:#000000; stroke-width:59.0551; stroke-opacity:1; 
stroke-linecap:round; stroke-linejoin:round;">
<path d="M69685 76577
L112205 76577
" />
</g>
<g style="fill:#000000; fill-opacity:0.0; 
stroke:#000000; stroke-width:39.3701; stroke-opacity:1; 
stroke-linecap:round; stroke-linejoin:round;">
</g>
<g style="fill:#000000; fill-opacity:0.0; 
stroke:#000000; stroke-width:59.0551; stroke-opacity:1; 
stroke-linecap:round; stroke-linejoin:round;">
<path d="M70249 77395
L70249 76805
" />
<path d="M70587 77395
L70334 77058
" />
<path d="M70587 76805
L70249 77142
" />
<path d="M70840 77395
L70840 77002
" />
<path d="M70840 76805
L70812 76833
L70840 76861
L70868 76833
L70840 76805
L70840 76861
" />
<path d="M71458 77339
L71430 77367
L71346 77395
L71290 77395
L71205 77367
L71149 77311
L71121 77255
L71093 77142
L71093 77058
L71121 76946
L71149 76889
L71205 76833
L71290 76805
L71346 76805
L71430 76833
L71458 76861
" />
<path d="M71965 77395
L71965 77086
L71937 77030
L71880 77002
L71768 77002
L71712 77030
" />
<path d="M71965 77367
L71908 77395
L71768 77395
L71712 77367
L71683 77311
L71683 77255
L71712 77199
L71768 77171
L71908 77171
L71965 77142
" />
<path d="M72499 77395
L72499 76805
" />
<path d="M72499 77367
L72443 77395
L72330 77395
L72274 77367
L72246 77339
L72218 77283
L72218 77114
L72246 77058
L72274 77030
L72330 77002
L72443 77002
L72499 77030
" />
<path d="M73230 77086
L73427 77086
" />
<path d="M73511 77395
L73230 77395
L73230 76805
L73511 76805
" />
<path d="M73764 77339
L73793 77367
L73764 77395
L73736 77367
L73764 77339
L73764 77395
" />
<path d="M74046 77395
L74046 76805
L74186 76805
L74271 76833
L74327 76889
L74355 76946
L74383 77058
L74383 77142
L74355 77255
L74327 77311
L74271 77367
L74186 77395
L74046 77395
" />
<path d="M74636 77339
L74664 77367
L74636 77395
L74608 77367
L74636 77339
L74636 77395
" />
<path d="M74889 77227
L75171 77227
" />
<path d="M74833 77395
L75030 76805
L75227 77395
" />
<path d="M75424 77339
L75452 77367
L75424 77395
L75395 77367
L75424 77339
L75424 77395
" />
<path d="M76605 77395
L76605 76805
" />
<path d="M76661 77171
L76830 77395
" />
<path d="M76830 77002
L76605 77227
" />
<path d="M77083 77395
L77083 77002
" />
<path d="M77083 76805
L77055 76833
L77083 76861
L77111 76833
L77083 76805
L77083 76861
" />
<path d="M77617 77367
L77561 77395
L77448 77395
L77392 77367
L77364 77339
L77336 77283
L77336 77114
L77364 77058
L77392 77030
L77448 77002
L77561 77002
L77617 77030
" />
<path d="M78123 77395
L78123 77086
L78095 77030
L78039 77002
L77926 77002
L77870 77030
" />
<path d="M78123 77367
L78067 77395
L77926 77395
L77870 77367
L77842 77311
L77842 77255
L77870 77199
L77926 77171
L78067 77171
L78123 77142
" />
<path d="M78658 77395
L78658 76805
" />
<path d="M78658 77367
L78601 77395
L78489 77395
L78433 77367
L78404 77339
L78376 77283
L78376 77114
L78404 77058
L78433 77030
L78489 77002
L78601 77002
L78658 77030
" />
<path d="M79557 77620
L79529 77592
L79473 77508
L79445 77452
L79417 77367
L79389 77227
L79389 77114
L79417 76974
L79445 76889
L79473 76833
L79529 76749
L79557 76721
" />
<path d="M80064 76805
L79782 76805
L79754 77086
L79782 77058
L79839 77030
L79979 77030
L80036 77058
L80064 77086
L80092 77142
L80092 77283
L80064 77339
L80036 77367
L79979 77395
L79839 77395
L79782 77367
L79754 77339
" />
<path d="M80345 77339
L80373 77367
L80345 77395
L80317 77367
L80345 77339
L80345 77395
" />
<path d="M80935 77395
L80598 77395
" />
<path d="M80767 77395
L80767 76805
L80710 76889
L80654 76946
L80598 76974
" />
<path d="M81188 77339
L81217 77367
L81188 77395
L81160 77367
L81188 77339
L81188 77395
" />
<path d="M81442 76861
L81470 76833
L81526 76805
L81667 76805
L81723 76833
L81751 76861
L81779 76917
L81779 76974
L81751 77058
L81413 77395
L81779 77395
" />
<path d="M82032 77171
L82482 77171
" />
<path d="M83073 77395
L82735 77395
" />
<path d="M82904 77395
L82904 76805
L82848 76889
L82791 76946
L82735 76974
" />
<path d="M83269 77620
L83298 77592
L83354 77508
L83382 77452
L83410 77367
L83438 77227
L83438 77114
L83410 76974
L83382 76889
L83354 76833
L83298 76749
L83269 76721
" />
<path d="M83719 77171
L84169 77171
" />
<path d="M84760 77395
L84422 77395
" />
<path d="M84591 77395
L84591 76805
L84535 76889
L84479 76946
L84422 76974
" />
</g>
<g style="fill:#000000; fill-opacity:0.0; 
stroke:#000000; stroke-width:39.3701; stroke-opacity:1; 
stroke-linecap:round; stroke-linejoin:round;">
</g>
<g style="fill:#000000; fill-opacity:0.0; 
stroke:#000000; stroke-width:59.0551; stroke-opacity:1; 
stroke-linecap:round; stroke-linejoin:round;">
<path d="M69685 75396
L112205 75396
" />
</g>
<g style="fill:#000000; fill-opacity:0.0; 
stroke:#000000; stroke-width:39.3701; stroke-opacity:1; 
stroke-linecap:round; stroke-linejoin:round;">
</g>
<g style="fill:#000000; fill-opacity:0.0; 
stroke:#000000; stroke-width:118.11; stroke-opacity:1; 
stroke-linecap:round; stroke-linejoin:round;">
<path d="M104099 76293
L103902 76012
" />
<path d="M103761 76293
L103761 75703
L103986 75703
L104042 75731
L104070 75759
L104099 75815
L104099 75899
L104070 75956
L104042 75984
L103986 76012
L103761 76012
" />
<path d="M104577 76265
L104520 76293
L104408 76293
L104352 76265
L104323 76209
L104323 75984
L104352 75928
L104408 75899
L104520 75899
L104577 75928
L104605 75984
L104605 76040
L104323 76096
" />
<path d="M104802 75899
L104942 76293
L105083 75899
" />
<path d="M105308 76237
L105336 76265
L105308 76293
L105280 76265
L105308 76237
L105308 76293
" />
<path d="M105308 75928
L105336 75956
L105308 75984
L105280 75956
L105308 75928
L105308 75984
" />
</g>
<g style="fill:#000000; fill-opacity:0.0; 
stroke:#000000; stroke-width:39.3701; stroke-opacity:1; 
stroke-linecap:round; stroke-linejoin:round;">
</g>
<g style="fill:#000000; fill-opacity:0.0; 
stroke:#000000; stroke-width:59.0551; stroke-opacity:1; 
stroke-linecap:round; stroke-linejoin:round;">
<path d="M70221 76265
L70305 76293
L70446 76293
L70502 76265
L70530 76237
L70559 76181
L70559 76124
L70530 76068
L70502 76040
L70446 76012
L70334 75984
L70277 75956
L70249 75928
L70221 75871
L70221 75815
L70249 75759
L70277 75731
L70334 75703
L70474 75703
L70559 75731
" />
<path d="M70812 76293
L70812 75899
" />
<path d="M70812 75703
L70784 75731
L70812 75759
L70840 75731
L70812 75703
L70812 75759
" />
<path d="M71037 75899
L71346 75899
L71037 76293
L71346 76293
" />
<path d="M71796 76265
L71740 76293
L71627 76293
L71571 76265
L71543 76209
L71543 75984
L71571 75928
L71627 75899
L71740 75899
L71796 75928
L71824 75984
L71824 76040
L71543 76096
" />
<path d="M72077 76237
L72105 76265
L72077 76293
L72049 76265
L72077 76237
L72077 76293
" />
<path d="M72077 75928
L72105 75956
L72077 75984
L72049 75956
L72077 75928
L72077 75984
" />
<path d="M72780 76124
L73061 76124
" />
<path d="M72724 76293
L72921 75703
L73118 76293
" />
<path d="M73568 75899
L73568 76293
" />
<path d="M73427 75674
L73286 76096
L73652 76096
" />
</g>
<g style="fill:#000000; fill-opacity:0.0; 
stroke:#000000; stroke-width:39.3701; stroke-opacity:1; 
stroke-linecap:round; stroke-linejoin:round;">
</g>
<g style="fill:#000000; fill-opacity:0.0; 
stroke:#000000; stroke-width:59.0551; stroke-opacity:1; 
stroke-linecap:round; stroke-linejoin:round;">
<path d="M103714 77395
L103714 76805
" />
<path d="M104248 77395
L104248 76805
" />
<path d="M104248 77367
L104192 77395
L104079 77395
L104023 77367
L103995 77339
L103967 77283
L103967 77114
L103995 77058
L104023 77030
L104079 77002
L104192 77002
L104248 77030
" />
<path d="M104529 77339
L104557 77367
L104529 77395
L104501 77367
L104529 77339
L104529 77395
" />
<path d="M104529 77030
L104557 77058
L104529 77086
L104501 77058
L104529 77030
L104529 77086
" />
<path d="M105570 77395
L105232 77395
" />
<path d="M105401 77395
L105401 76805
L105345 76889
L105289 76946
L105232 76974
" />
<path d="M106245 76777
L105739 77536
" />
<path d="M106751 77395
L106413 77395
" />
<path d="M106582 77395
L106582 76805
L106526 76889
L106470 76946
L106413 76974
" />
</g>
<g style="fill:#000000; fill-opacity:0.0; 
stroke:#000000; stroke-width:39.3701; stroke-opacity:1; 
stroke-linecap:round; stroke-linejoin:round;">
</g>
<g style="fill:#000000; fill-opacity:0.0; 
stroke:#000000; stroke-width:59.0551; stroke-opacity:1; 
stroke-linecap:round; stroke-linejoin:round;">
<path d="M69685 73821
L112205 73821
" />
</g>
<g style="fill:#000000; fill-opacity:0.0; 
stroke:#000000; stroke-width:39.3701; stroke-opacity:1; 
stroke-linecap:round; stroke-linejoin:round;">
</g>
<g style="fill:#000000; fill-opacity:0.0; 
stroke:#000000; stroke-width:157.48; stroke-opacity:1; 
stroke-linecap:round; stroke-linejoin:round;">
<path d="M70360 74099
L70810 74099
" />
<path d="M70486 74886
L70585 74099
" />
<path d="M70974 74886
L71039 74361
" />
<path d="M71072 74099
L71030 74136
L71063 74174
L71105 74136
L71072 74099
L71063 74174
" />
<path d="M71302 74361
L71602 74361
" />
<path d="M71447 74099
L71363 74774
L71391 74849
L71461 74886
L71536 74886
" />
<path d="M71911 74886
L71841 74849
L71813 74774
L71897 74099
" />
<path d="M72516 74849
L72436 74886
L72286 74886
L72216 74849
L72187 74774
L72225 74474
L72272 74399
L72352 74361
L72501 74361
L72572 74399
L72600 74474
L72591 74549
L72206 74624
" />
<path d="M72895 74811
L72928 74849
L72886 74886
L72853 74849
L72895 74811
L72886 74886
" />
<path d="M72947 74399
L72980 74436
L72937 74474
L72905 74436
L72947 74399
L72937 74474
" />
</g>
<g style="fill:#000000; fill-opacity:0.0; 
stroke:#000000; stroke-width:39.3701; stroke-opacity:1; 
stroke-linecap:round; stroke-linejoin:round;">
</g>
<g style="fill:#000000; fill-opacity:0.0; 
stroke:#000000; stroke-width:59.0551; stroke-opacity:1; 
stroke-linecap:round; stroke-linejoin:round;">
<path d="M70446 73070
L70249 73070
" />
<path d="M70249 73380
L70249 72789
L70530 72789
" />
<path d="M70755 73380
L70755 72986
" />
<path d="M70755 72789
L70727 72817
L70755 72845
L70784 72817
L70755 72789
L70755 72845
" />
<path d="M71121 73380
L71065 73352
L71037 73295
L71037 72789
" />
<path d="M71571 73352
L71515 73380
L71402 73380
L71346 73352
L71318 73295
L71318 73070
L71346 73014
L71402 72986
L71515 72986
L71571 73014
L71599 73070
L71599 73127
L71318 73183
" />
<path d="M71852 73323
L71880 73352
L71852 73380
L71824 73352
L71852 73323
L71852 73380
" />
<path d="M71852 73014
L71880 73042
L71852 73070
L71824 73042
L71852 73014
L71852 73070
" />
<path d="M72583 72986
L72583 73577
" />
<path d="M72583 73014
L72640 72986
L72752 72986
L72808 73014
L72836 73042
L72865 73099
L72865 73267
L72836 73323
L72808 73352
L72752 73380
L72640 73380
L72583 73352
" />
<path d="M73371 73352
L73314 73380
L73202 73380
L73146 73352
L73118 73323
L73090 73267
L73090 73099
L73118 73042
L73146 73014
L73202 72986
L73314 72986
L73371 73014
" />
<path d="M73624 73380
L73624 72986
" />
<path d="M73624 72789
L73596 72817
L73624 72845
L73652 72817
L73624 72789
L73624 72845
" />
<path d="M73905 73155
L74355 73155
" />
<path d="M74608 73352
L74664 73380
L74777 73380
L74833 73352
L74861 73295
L74861 73267
L74833 73211
L74777 73183
L74692 73183
L74636 73155
L74608 73099
L74608 73070
L74636 73014
L74692 72986
L74777 72986
L74833 73014
" />
<path d="M75114 73380
L75114 72986
" />
<path d="M75114 72789
L75086 72817
L75114 72845
L75142 72817
L75114 72789
L75114 72845
" />
<path d="M75649 73380
L75649 72789
" />
<path d="M75649 73352
L75592 73380
L75480 73380
L75424 73352
L75395 73323
L75367 73267
L75367 73099
L75395 73042
L75424 73014
L75480 72986
L75592 72986
L75649 73014
" />
<path d="M76155 73352
L76099 73380
L75986 73380
L75930 73352
L75902 73295
L75902 73070
L75930 73014
L75986 72986
L76099 72986
L76155 73014
L76183 73070
L76183 73127
L75902 73183
" />
<path d="M76436 73323
L76464 73352
L76436 73380
L76408 73352
L76436 73323
L76436 73380
" />
<path d="M76717 73380
L76717 72789
" />
<path d="M76773 73155
L76942 73380
" />
<path d="M76942 72986
L76717 73211
" />
<path d="M77195 73380
L77195 72986
" />
<path d="M77195 72789
L77167 72817
L77195 72845
L77223 72817
L77195 72789
L77195 72845
" />
<path d="M77730 73352
L77673 73380
L77561 73380
L77505 73352
L77476 73323
L77448 73267
L77448 73099
L77476 73042
L77505 73014
L77561 72986
L77673 72986
L77730 73014
" />
<path d="M78236 73380
L78236 73070
L78208 73014
L78151 72986
L78039 72986
L77983 73014
" />
<path d="M78236 73352
L78180 73380
L78039 73380
L77983 73352
L77955 73295
L77955 73239
L77983 73183
L78039 73155
L78180 73155
L78236 73127
" />
<path d="M78770 73380
L78770 72789
" />
<path d="M78770 73352
L78714 73380
L78601 73380
L78545 73352
L78517 73323
L78489 73267
L78489 73099
L78517 73042
L78545 73014
L78601 72986
L78714 72986
L78770 73014
" />
<path d="M78911 73436
L79361 73436
" />
<path d="M79501 72986
L79501 73577
" />
<path d="M79501 73014
L79557 72986
L79670 72986
L79726 73014
L79754 73042
L79782 73099
L79782 73267
L79754 73323
L79726 73352
L79670 73380
L79557 73380
L79501 73352
" />
<path d="M80289 73352
L80232 73380
L80120 73380
L80064 73352
L80036 73323
L80007 73267
L80007 73099
L80036 73042
L80064 73014
L80120 72986
L80232 72986
L80289 73014
" />
<path d="M80542 73380
L80542 72789
" />
<path d="M80542 73014
L80598 72986
L80710 72986
L80767 73014
L80795 73042
L80823 73099
L80823 73267
L80795 73323
L80767 73352
L80710 73380
L80598 73380
L80542 73352
" />
</g>
<g style="fill:#000000; fill-opacity:0.0; 
stroke:#000000; stroke-width:39.3701; stroke-opacity:1; 
stroke-linecap:round; stroke-linejoin:round;">
</g>
<g style="fill:#000000; fill-opacity:0.0; 
stroke:#000000; stroke-width:59.0551; stroke-opacity:1; 
stroke-linecap:round; stroke-linejoin:round;">
<path d="M69685 71459
L112205 71459
" />
</g>
<g style="fill:#000000; fill-opacity:0.0; 
stroke:#000000; stroke-width:39.3701; stroke-opacity:1; 
stroke-linecap:round; stroke-linejoin:round;">
</g>
<g style="fill:#000000; fill-opacity:0.0; 
stroke:#000000; stroke-width:59.0551; stroke-opacity:1; 
stroke-linecap:round; stroke-linejoin:round;">
<path d="M70221 72289
L70305 72317
L70446 72317
L70502 72289
L70530 72260
L70559 72204
L70559 72148
L70530 72092
L70502 72064
L70446 72036
L70334 72007
L70277 71979
L70249 71951
L70221 71895
L70221 71839
L70249 71782
L70277 71754
L70334 71726
L70474 71726
L70559 71754
" />
<path d="M70812 72317
L70812 71726
" />
<path d="M71065 72317
L71065 72007
L71037 71951
L70980 71923
L70896 71923
L70840 71951
L70812 71979
" />
<path d="M71571 72289
L71515 72317
L71402 72317
L71346 72289
L71318 72232
L71318 72007
L71346 71951
L71402 71923
L71515 71923
L71571 71951
L71599 72007
L71599 72064
L71318 72120
" />
<path d="M72077 72289
L72021 72317
L71908 72317
L71852 72289
L71824 72232
L71824 72007
L71852 71951
L71908 71923
L72021 71923
L72077 71951
L72105 72007
L72105 72064
L71824 72120
" />
<path d="M72274 71923
L72499 71923
" />
<path d="M72358 71726
L72358 72232
L72386 72289
L72443 72317
L72499 72317
" />
<path d="M72696 72260
L72724 72289
L72696 72317
L72668 72289
L72696 72260
L72696 72317
" />
<path d="M72696 71951
L72724 71979
L72696 72007
L72668 71979
L72696 71951
L72696 72007
" />
</g>
<g style="fill:#000000; fill-opacity:0.0; 
stroke:#000000; stroke-width:39.3701; stroke-opacity:1; 
stroke-linecap:round; stroke-linejoin:round;">
</g>
<g style="fill:#000000; fill-opacity:0.0; 
stroke:#000000; stroke-width:59.0551; stroke-opacity:1; 
stroke-linecap:round; stroke-linejoin:round;">
<path d="M77559 75396
L77559 76577
" />
</g>
<g style="fill:#000000; fill-opacity:0.0; 
stroke:#000000; stroke-width:39.3701; stroke-opacity:1; 
stroke-linecap:round; stroke-linejoin:round;">
</g>
<g style="fill:#000000; fill-opacity:0.0; 
stroke:#000000; stroke-width:59.0551; stroke-opacity:1; 
stroke-linecap:round; stroke-linejoin:round;">
<path d="M102756 75396
L102756 77955
" />
</g>
<g style="fill:#000000; fill-opacity:0.0; 
stroke:#000000; stroke-width:47.2441; stroke-opacity:1; 
stroke-linecap:round; stroke-linejoin:round;">
<path d="M48100 39900
L27800 39900
" />
</g>
<g style="fill:#000000; fill-opacity:0.0; 
stroke:#000000; stroke-width:50; stroke-opacity:1; 
stroke-linecap:round; stroke-linejoin:round;">
<path d="M42362 38464
L43464 38464
" />
<path d="M57716 38464
L57716 39507
" />
<path d="M56948 38464
L57716 38464
" />
<path d="M57716 41889
L57716 40275
" />
<path d="M57716 41889
L42362 41889
" />
<path d="M42362 41889
L42362 38464
" />
</g>
<g style="fill:#000000; fill-opacity:0.0; 
stroke:#000000; stroke-width:78.7402; stroke-opacity:1; 
stroke-linecap:round; stroke-linejoin:round;">
<path d="M84921 28593
L80590 28593
" />
<path d="M84921 45422
L84921 28593
" />
<path d="M80590 45422
L84921 45422
" />
<path d="M80590 44007
L80590 45422
" />
<path d="M81996 44007
L80590 44007
" />
<path d="M81996 30007
L81996 44007
" />
<path d="M80590 30007
L81996 30007
" />
<path d="M80590 28593
L80590 30007
" />
</g>
<g style="fill:#000000; fill-opacity:0.0; 
stroke:#000000; stroke-width:50; stroke-opacity:1; 
stroke-linecap:round; stroke-linejoin:round;">
<path d="M75490 36770
L75690 36770
" />
<path d="M75748 36275
L75748 36165
" />
<path d="M75433 36275
L75433 36165
" />
<path d="M75490 39526
L75690 39526
" />
<path d="M75748 39031
L75748 38921
" />
<path d="M75433 39031
L75433 38921
" />
<path d="M75490 42282
L75690 42282
" />
<path d="M75748 41787
L75748 41677
" />
<path d="M75433 41787
L75433 41677
" />
<path d="M78452 38858
L78452 39094
" />
<path d="M79027 38858
L79027 39094
" />
<path d="M78452 36102
L78452 36338
" />
<path d="M79027 36102
L79027 36338
" />
<path d="M78452 41614
L78452 41850
" />
<path d="M79027 41614
L79027 41850
" />
</g>
<g style="fill:#000000; fill-opacity:0.0; 
stroke:#000000; stroke-width:47.2441; stroke-opacity:1; 
stroke-linecap:round; stroke-linejoin:round;">
<circle cx="92559.1" cy="42519.7" r="492.52" /> 
<circle cx="92559.1" cy="31496.1" r="492.52" /> 
<circle cx="31559.1" cy="31496.1" r="492.52" /> 
<circle cx="31559.1" cy="42519.7" r="492.52" /> 
</g>
<g style="fill:#000000; fill-opacity:0.0; 
stroke:#000000; stroke-width:19.685; stroke-opacity:1; 
stroke-linecap:round; stroke-linejoin:round;">
<path d="M48514 42143
L48514 42425
L48496 42481
L48458 42518
L48402 42537
L48364 42537
" />
<path d="M48909 42537
L48683 42537
" />
<path d="M48796 42537
L48796 42143
L48758 42199
L48721 42237
L48683 42256
" />
<path d="M44825 38084
L44825 37690
L44976 37690
L45013 37709
L45032 37728
L45051 37765
L45051 37821
L45032 37859
L45013 37878
L44976 37896
L44825 37896
" />
<path d="M45445 38046
L45426 38065
L45369 38084
L45332 38084
L45276 38065
L45238 38028
L45219 37990
L45201 37915
L45201 37859
L45219 37784
L45238 37746
L45276 37709
L45332 37690
L45369 37690
L45426 37709
L45445 37728
" />
<path d="M45613 38084
L45613 37690
" />
<path d="M45801 37878
L45932 37878
" />
<path d="M45989 38084
L45801 38084
L45801 37690
L45989 37690
" />
<path d="M46157 37934
L46458 37934
" />
<path d="M46720 37690
L46758 37690
L46795 37709
L46814 37728
L46833 37765
L46851 37840
L46851 37934
L46833 38009
L46814 38046
L46795 38065
L46758 38084
L46720 38084
L46683 38065
L46664 38046
L46645 38009
L46626 37934
L46626 37840
L46645 37765
L46664 37728
L46683 37709
L46720 37690
" />
<path d="M47189 37690
L47114 37690
L47077 37709
L47058 37728
L47020 37784
L47002 37859
L47002 38009
L47020 38046
L47039 38065
L47077 38084
L47152 38084
L47189 38065
L47208 38046
L47227 38009
L47227 37915
L47208 37878
L47189 37859
L47152 37840
L47077 37840
L47039 37859
L47020 37878
L47002 37915
" />
<path d="M47564 37821
L47564 38084
" />
<path d="M47471 37671
L47377 37953
L47621 37953
" />
<path d="M47771 37934
L48071 37934
" />
<path d="M48333 37690
L48371 37690
L48408 37709
L48427 37728
L48446 37765
L48465 37840
L48465 37934
L48446 38009
L48427 38046
L48408 38065
L48371 38084
L48333 38084
L48296 38065
L48277 38046
L48258 38009
L48240 37934
L48240 37840
L48258 37765
L48277 37728
L48296 37709
L48333 37690
" />
<path d="M48615 37728
L48634 37709
L48671 37690
L48765 37690
L48802 37709
L48821 37728
L48840 37765
L48840 37803
L48821 37859
L48596 38084
L48840 38084
" />
<path d="M49009 37934
L49309 37934
" />
<path d="M49628 37878
L49497 37878
" />
<path d="M49497 38084
L49497 37690
L49684 37690
" />
<path d="M49834 37934
L50134 37934
" />
<path d="M50322 38084
L50322 37690
L50416 37690
L50472 37709
L50510 37746
L50528 37784
L50547 37859
L50547 37915
L50528 37990
L50510 38028
L50472 38065
L50416 38084
L50322 38084
" />
<path d="M50716 37934
L51016 37934
" />
<path d="M51147 37690
L51372 37690
" />
<path d="M51260 38084
L51260 37690
" />
<path d="M51504 38084
L51504 37690
" />
<path d="M51504 37878
L51729 37878
" />
<path d="M51729 38084
L51729 37690
" />
<path d="M56745 42118
L56801 42137
L56820 42156
L56839 42193
L56839 42250
L56820 42287
L56801 42306
L56764 42325
L56614 42325
L56614 41931
L56745 41931
L56782 41950
L56801 41968
L56820 42006
L56820 42043
L56801 42081
L56782 42100
L56745 42118
L56614 42118
" />
<path d="M56970 41931
L57214 41931
L57082 42081
L57139 42081
L57176 42100
L57195 42118
L57214 42156
L57214 42250
L57195 42287
L57176 42306
L57139 42325
L57026 42325
L56989 42306
L56970 42287
" />
<path d="M57364 41968
L57382 41950
L57420 41931
L57513 41931
L57551 41950
L57570 41968
L57588 42006
L57588 42043
L57570 42100
L57345 42325
L57588 42325
" />
<path d="M44124 42082
L44180 42101
L44199 42119
L44218 42157
L44218 42213
L44199 42251
L44180 42269
L44143 42288
L43993 42288
L43993 41894
L44124 41894
L44162 41913
L44180 41932
L44199 41969
L44199 42007
L44180 42044
L44162 42063
L44124 42082
L43993 42082
" />
<path d="M44368 41932
L44387 41913
L44424 41894
L44518 41894
L44555 41913
L44574 41932
L44593 41969
L44593 42007
L44574 42063
L44349 42288
L44593 42288
" />
<path d="M56627 37681
L56814 37681
" />
<path d="M56589 37793
L56721 37400
L56852 37793
" />
<path d="M56946 37400
L57189 37400
L57058 37550
L57114 37550
L57152 37568
L57171 37587
L57189 37625
L57189 37718
L57171 37756
L57152 37775
L57114 37793
L57002 37793
L56964 37775
L56946 37756
" />
<path d="M57339 37437
L57358 37418
L57396 37400
L57489 37400
L57527 37418
L57546 37437
L57564 37475
L57564 37512
L57546 37568
L57321 37793
L57564 37793
" />
<path d="M43888 37642
L44075 37642
" />
<path d="M43850 37754
L43981 37360
L44113 37754
" />
<path d="M44225 37398
L44244 37379
L44281 37360
L44375 37360
L44413 37379
L44431 37398
L44450 37435
L44450 37473
L44431 37529
L44206 37754
L44450 37754
" />
<path d="M77843 37036
L77656 37167
" />
<path d="M77843 37261
L77449 37261
L77449 37111
L77468 37073
L77487 37055
L77524 37036
L77581 37036
L77618 37055
L77637 37073
L77656 37111
L77656 37261
" />
<path d="M77449 36905
L77449 36661
L77599 36792
L77599 36736
L77618 36698
L77637 36679
L77674 36661
L77768 36661
L77806 36679
L77824 36698
L77843 36736
L77843 36848
L77824 36886
L77806 36905
" />
<path d="M76805 39944
L76824 39962
L76842 40019
L76842 40056
L76824 40113
L76786 40150
L76749 40169
L76674 40188
L76617 40188
L76542 40169
L76505 40150
L76467 40113
L76448 40056
L76448 40019
L76467 39962
L76486 39944
" />
<path d="M76842 39549
L76655 39681
" />
<path d="M76842 39775
L76448 39775
L76448 39624
L76467 39587
L76486 39568
L76523 39549
L76580 39549
L76617 39568
L76636 39587
L76655 39624
L76655 39775
" />
<path d="M76805 39155
L76824 39174
L76842 39230
L76842 39268
L76824 39324
L76786 39362
L76749 39380
L76674 39399
L76617 39399
L76542 39380
L76505 39362
L76467 39324
L76448 39268
L76448 39230
L76467 39174
L76486 39155
" />
<path d="M76448 39024
L76842 38930
L76561 38855
L76842 38780
L76448 38686
" />
<path d="M76448 38460
L76448 38423
L76467 38385
L76486 38367
L76523 38348
L76598 38329
L76692 38329
L76767 38348
L76805 38367
L76824 38385
L76842 38423
L76842 38460
L76824 38498
L76805 38517
L76767 38536
L76692 38554
L76598 38554
L76523 38536
L76486 38517
L76467 38498
L76448 38460
" />
<path d="M76448 37991
L76448 38066
L76467 38104
L76486 38123
L76542 38160
L76617 38179
L76767 38179
L76805 38160
L76824 38141
L76842 38104
L76842 38029
L76824 37991
L76805 37972
L76767 37954
L76674 37954
L76636 37972
L76617 37991
L76598 38029
L76598 38104
L76617 38141
L76636 38160
L76674 38179
" />
<path d="M76448 37710
L76448 37672
L76467 37634
L76486 37616
L76523 37597
L76598 37578
L76692 37578
L76767 37597
L76805 37616
L76824 37634
L76842 37672
L76842 37710
L76824 37747
L76805 37766
L76767 37785
L76692 37803
L76598 37803
L76523 37785
L76486 37766
L76467 37747
L76448 37710
" />
<path d="M76448 37447
L76448 37203
L76598 37334
L76598 37278
L76617 37240
L76636 37221
L76674 37203
L76767 37203
L76805 37221
L76824 37240
L76842 37278
L76842 37390
L76824 37428
L76805 37447
" />
<path d="M76842 36827
L76842 37052
" />
<path d="M76842 36940
L76448 36940
L76505 36977
L76542 37015
L76561 37052
" />
<path d="M76486 36677
L76467 36658
L76448 36621
L76448 36527
L76467 36489
L76486 36470
L76523 36452
L76561 36452
L76617 36470
L76842 36696
L76842 36452
" />
<path d="M76842 36057
L76655 36189
" />
<path d="M76842 36283
L76448 36283
L76448 36132
L76467 36095
L76486 36076
L76523 36057
L76580 36057
L76617 36076
L76636 36095
L76655 36132
L76655 36283
" />
<path d="M76448 35813
L76448 35776
L76467 35738
L76486 35719
L76523 35701
L76598 35682
L76692 35682
L76767 35701
L76805 35719
L76824 35738
L76842 35776
L76842 35813
L76824 35851
L76805 35870
L76767 35888
L76692 35907
L76598 35907
L76523 35888
L76486 35870
L76467 35851
L76448 35813
" />
<path d="M76636 35382
L76636 35513
" />
<path d="M76842 35513
L76448 35513
L76448 35325
" />
<path d="M76842 35175
L76448 35175
" />
<path d="M76842 34950
L76617 35119
" />
<path d="M76448 34950
L76674 35175
" />
<path d="M76636 34781
L76636 34649
" />
<path d="M76842 34593
L76842 34781
L76448 34781
L76448 34593
" />
<path d="M76730 34443
L76730 34255
" />
<path d="M76842 34480
L76448 34349
L76842 34218
" />
<path d="M77843 42489
L77656 42620
" />
<path d="M77843 42714
L77449 42714
L77449 42564
L77468 42526
L77487 42507
L77524 42489
L77581 42489
L77618 42507
L77637 42526
L77656 42564
L77656 42714
" />
<path d="M77487 42339
L77468 42320
L77449 42282
L77449 42188
L77468 42151
L77487 42132
L77524 42113
L77562 42113
L77618 42132
L77843 42357
L77843 42113
" />
<path d="M76805 45396
L76824 45415
L76842 45471
L76842 45509
L76824 45565
L76786 45603
L76749 45622
L76674 45640
L76617 45640
L76542 45622
L76505 45603
L76467 45565
L76448 45509
L76448 45471
L76467 45415
L76486 45396
" />
<path d="M76842 45002
L76655 45134
" />
<path d="M76842 45227
L76448 45227
L76448 45077
L76467 45040
L76486 45021
L76523 45002
L76580 45002
L76617 45021
L76636 45040
L76655 45077
L76655 45227
" />
<path d="M76805 44608
L76824 44627
L76842 44683
L76842 44721
L76824 44777
L76786 44814
L76749 44833
L76674 44852
L76617 44852
L76542 44833
L76505 44814
L76467 44777
L76448 44721
L76448 44683
L76467 44627
L76486 44608
" />
<path d="M76448 44476
L76842 44383
L76561 44307
L76842 44232
L76448 44139
" />
<path d="M76448 43913
L76448 43876
L76467 43838
L76486 43819
L76523 43801
L76598 43782
L76692 43782
L76767 43801
L76805 43819
L76824 43838
L76842 43876
L76842 43913
L76824 43951
L76805 43970
L76767 43988
L76692 44007
L76598 44007
L76523 43988
L76486 43970
L76467 43951
L76448 43913
" />
<path d="M76448 43444
L76448 43519
L76467 43557
L76486 43575
L76542 43613
L76617 43632
L76767 43632
L76805 43613
L76824 43594
L76842 43557
L76842 43481
L76824 43444
L76805 43425
L76767 43406
L76674 43406
L76636 43425
L76617 43444
L76598 43481
L76598 43557
L76617 43594
L76636 43613
L76674 43632
" />
<path d="M76448 43162
L76448 43125
L76467 43087
L76486 43068
L76523 43050
L76598 43031
L76692 43031
L76767 43050
L76805 43068
L76824 43087
L76842 43125
L76842 43162
L76824 43200
L76805 43219
L76767 43237
L76692 43256
L76598 43256
L76523 43237
L76486 43219
L76467 43200
L76448 43162
" />
<path d="M76448 42899
L76448 42655
L76598 42787
L76598 42730
L76617 42693
L76636 42674
L76674 42655
L76767 42655
L76805 42674
L76824 42693
L76842 42730
L76842 42843
L76824 42881
L76805 42899
" />
<path d="M76842 42280
L76842 42505
" />
<path d="M76842 42393
L76448 42393
L76505 42430
L76542 42468
L76561 42505
" />
<path d="M76486 42130
L76467 42111
L76448 42073
L76448 41979
L76467 41942
L76486 41923
L76523 41904
L76561 41904
L76617 41923
L76842 42148
L76842 41904
" />
<path d="M76842 41510
L76655 41642
" />
<path d="M76842 41735
L76448 41735
L76448 41585
L76467 41548
L76486 41529
L76523 41510
L76580 41510
L76617 41529
L76636 41548
L76655 41585
L76655 41735
" />
<path d="M76448 41266
L76448 41229
L76467 41191
L76486 41172
L76523 41153
L76598 41135
L76692 41135
L76767 41153
L76805 41172
L76824 41191
L76842 41229
L76842 41266
L76824 41304
L76805 41322
L76767 41341
L76692 41360
L76598 41360
L76523 41341
L76486 41322
L76467 41304
L76448 41266
" />
<path d="M76636 40834
L76636 40966
" />
<path d="M76842 40966
L76448 40966
L76448 40778
" />
<path d="M76842 40628
L76448 40628
" />
<path d="M76842 40402
L76617 40571
" />
<path d="M76448 40402
L76674 40628
" />
<path d="M76636 40234
L76636 40102
" />
<path d="M76842 40046
L76842 40234
L76448 40234
L76448 40046
" />
<path d="M76730 39896
L76730 39708
" />
<path d="M76842 39933
L76448 39802
L76842 39670
" />
<path d="M77843 39792
L77656 39923
" />
<path d="M77843 40017
L77449 40017
L77449 39867
L77468 39829
L77487 39810
L77524 39792
L77581 39792
L77618 39810
L77637 39829
L77656 39867
L77656 40017
" />
<path d="M77843 39417
L77843 39642
" />
<path d="M77843 39529
L77449 39529
L77506 39567
L77543 39604
L77562 39642
" />
<path d="M76805 42700
L76824 42718
L76842 42775
L76842 42812
L76824 42868
L76786 42906
L76749 42925
L76674 42944
L76617 42944
L76542 42925
L76505 42906
L76467 42868
L76448 42812
L76448 42775
L76467 42718
L76486 42700
" />
<path d="M76842 42305
L76655 42437
" />
<path d="M76842 42531
L76448 42531
L76448 42380
L76467 42343
L76486 42324
L76523 42305
L76580 42305
L76617 42324
L76636 42343
L76655 42380
L76655 42531
" />
<path d="M76805 41911
L76824 41930
L76842 41986
L76842 42024
L76824 42080
L76786 42118
L76749 42136
L76674 42155
L76617 42155
L76542 42136
L76505 42118
L76467 42080
L76448 42024
L76448 41986
L76467 41930
L76486 41911
" />
<path d="M76448 41780
L76842 41686
L76561 41611
L76842 41536
L76448 41442
" />
<path d="M76448 41216
L76448 41179
L76467 41141
L76486 41123
L76523 41104
L76598 41085
L76692 41085
L76767 41104
L76805 41123
L76824 41141
L76842 41179
L76842 41216
L76824 41254
L76805 41273
L76767 41291
L76692 41310
L76598 41310
L76523 41291
L76486 41273
L76467 41254
L76448 41216
" />
<path d="M76448 40747
L76448 40822
L76467 40860
L76486 40878
L76542 40916
L76617 40935
L76767 40935
L76805 40916
L76824 40897
L76842 40860
L76842 40785
L76824 40747
L76805 40728
L76767 40709
L76674 40709
L76636 40728
L76617 40747
L76598 40785
L76598 40860
L76617 40897
L76636 40916
L76674 40935
" />
<path d="M76448 40465
L76448 40428
L76467 40390
L76486 40372
L76523 40353
L76598 40334
L76692 40334
L76767 40353
L76805 40372
L76824 40390
L76842 40428
L76842 40465
L76824 40503
L76805 40522
L76767 40541
L76692 40559
L76598 40559
L76523 40541
L76486 40522
L76467 40503
L76448 40465
" />
<path d="M76448 40203
L76448 39959
L76598 40090
L76598 40034
L76617 39996
L76636 39977
L76674 39959
L76767 39959
L76805 39977
L76824 39996
L76842 40034
L76842 40146
L76824 40184
L76805 40203
" />
<path d="M76842 39583
L76842 39808
" />
<path d="M76842 39696
L76448 39696
L76505 39733
L76542 39771
L76561 39808
" />
<path d="M76486 39433
L76467 39414
L76448 39377
L76448 39283
L76467 39245
L76486 39226
L76523 39208
L76561 39208
L76617 39226
L76842 39452
L76842 39208
" />
<path d="M76842 38813
L76655 38945
" />
<path d="M76842 39039
L76448 39039
L76448 38888
L76467 38851
L76486 38832
L76523 38813
L76580 38813
L76617 38832
L76636 38851
L76655 38888
L76655 39039
" />
<path d="M76448 38569
L76448 38532
L76467 38494
L76486 38475
L76523 38457
L76598 38438
L76692 38438
L76767 38457
L76805 38475
L76824 38494
L76842 38532
L76842 38569
L76824 38607
L76805 38626
L76767 38644
L76692 38663
L76598 38663
L76523 38644
L76486 38626
L76467 38607
L76448 38569
" />
<path d="M76636 38137
L76636 38269
" />
<path d="M76842 38269
L76448 38269
L76448 38081
" />
<path d="M76842 37931
L76448 37931
" />
<path d="M76842 37706
L76617 37875
" />
<path d="M76448 37706
L76674 37931
" />
<path d="M76636 37537
L76636 37405
" />
<path d="M76842 37349
L76842 37537
L76448 37537
L76448 37349
" />
<path d="M76730 37199
L76730 37011
" />
<path d="M76842 37236
L76448 37105
L76842 36973
" />
<path d="M85491 30416
L85097 30416
L85097 30266
L85116 30229
L85135 30210
L85172 30191
L85228 30191
L85266 30210
L85285 30229
L85303 30266
L85303 30416
" />
<path d="M85491 29816
L85491 30041
" />
<path d="M85491 29928
L85097 29928
L85153 29966
L85191 30004
L85210 30041
" />
<path d="M85139 44634
L85139 44822
L85327 44841
L85309 44822
L85290 44785
L85290 44691
L85309 44653
L85327 44634
L85365 44616
L85459 44616
L85496 44634
L85515 44653
L85534 44691
L85534 44785
L85515 44822
L85496 44841
" />
<path d="M85139 44277
L85139 44353
L85158 44390
L85177 44409
L85233 44447
L85309 44465
L85459 44465
L85496 44447
L85515 44428
L85534 44390
L85534 44315
L85515 44277
L85496 44259
L85459 44240
L85365 44240
L85327 44259
L85309 44277
L85290 44315
L85290 44390
L85309 44428
L85327 44447
L85365 44465
" />
<path d="M85177 44090
L85158 44071
L85139 44033
L85139 43939
L85158 43902
L85177 43883
L85215 43864
L85252 43864
L85309 43883
L85534 44108
L85534 43864
" />
<path d="M85177 43714
L85158 43695
L85139 43658
L85139 43564
L85158 43526
L85177 43507
L85215 43489
L85252 43489
L85309 43507
L85534 43733
L85534 43489
" />
<path d="M85384 43319
L85384 43019
" />
<path d="M85271 42662
L85534 42662
" />
<path d="M85121 42756
L85402 42850
L85402 42606
" />
<path d="M85534 42249
L85534 42474
" />
<path d="M85534 42361
L85139 42361
L85196 42399
L85233 42437
L85252 42474
" />
<path d="M85139 42005
L85139 41967
L85158 41929
L85177 41911
L85215 41892
L85290 41873
L85384 41873
L85459 41892
L85496 41911
L85515 41929
L85534 41967
L85534 42005
L85515 42042
L85496 42061
L85459 42080
L85384 42098
L85290 42098
L85215 42080
L85177 42061
L85158 42042
L85139 42005
" />
<path d="M85139 41629
L85139 41591
L85158 41554
L85177 41535
L85215 41516
L85290 41497
L85384 41497
L85459 41516
L85496 41535
L85515 41554
L85534 41591
L85534 41629
L85515 41666
L85496 41685
L85459 41704
L85384 41723
L85290 41723
L85215 41704
L85177 41685
L85158 41666
L85139 41629
" />
<path d="M85384 41328
L85384 41028
" />
<path d="M85534 40840
L85139 40840
L85421 40708
L85139 40577
L85534 40577
" />
<path d="M85534 40201
L85534 40389
L85139 40389
" />
<path d="M75044 36516
L74792 36516
L74792 36456
L74804 36420
L74828 36396
L74852 36384
L74900 36372
L74936 36372
L74984 36384
L75008 36396
L75032 36420
L75044 36456
L75044 36516
" />
<path d="M74792 36288
L74792 36132
L74888 36216
L74888 36180
L74900 36156
L74912 36144
L74936 36132
L74996 36132
L75020 36144
L75032 36156
L75044 36180
L75044 36252
L75032 36276
L75020 36288
" />
<path d="M76292 37610
L76292 37730
L76412 37742
L76400 37730
L76388 37706
L76388 37646
L76400 37622
L76412 37610
L76436 37598
L76496 37598
L76520 37610
L76532 37622
L76544 37646
L76544 37706
L76532 37730
L76520 37742
" />
<path d="M76544 37478
L76544 37430
L76532 37406
L76520 37394
L76484 37370
L76436 37358
L76340 37358
L76316 37370
L76304 37382
L76292 37406
L76292 37454
L76304 37478
L76316 37490
L76340 37502
L76400 37502
L76424 37490
L76436 37478
L76448 37454
L76448 37406
L76436 37382
L76424 37370
L76400 37358
" />
<path d="M76400 37214
L76388 37238
L76376 37250
L76352 37262
L76340 37262
L76316 37250
L76304 37238
L76292 37214
L76292 37166
L76304 37142
L76316 37130
L76340 37118
L76352 37118
L76376 37130
L76388 37142
L76400 37166
L76400 37214
L76412 37238
L76424 37250
L76448 37262
L76496 37262
L76520 37250
L76532 37238
L76544 37214
L76544 37166
L76532 37142
L76520 37130
L76496 37118
L76448 37118
L76424 37130
L76412 37142
L76400 37166
" />
<path d="M76448 37010
L76448 36818
" />
<path d="M76400 36662
L76388 36686
L76376 36698
L76352 36710
L76340 36710
L76316 36698
L76304 36686
L76292 36662
L76292 36614
L76304 36590
L76316 36578
L76340 36566
L76352 36566
L76376 36578
L76388 36590
L76400 36614
L76400 36662
L76412 36686
L76424 36698
L76448 36710
L76496 36710
L76520 36698
L76532 36686
L76544 36662
L76544 36614
L76532 36590
L76520 36578
L76496 36566
L76448 36566
L76424 36578
L76412 36590
L76400 36614
" />
<path d="M76292 36410
L76292 36386
L76304 36362
L76316 36350
L76340 36338
L76388 36326
L76448 36326
L76496 36338
L76520 36350
L76532 36362
L76544 36386
L76544 36410
L76532 36434
L76520 36446
L76496 36458
L76448 36470
L76388 36470
L76340 36458
L76316 36446
L76304 36434
L76292 36410
" />
<path d="M76544 36086
L76544 36230
" />
<path d="M76544 36158
L76292 36158
L76328 36182
L76352 36206
L76364 36230
" />
<path d="M76292 35930
L76292 35906
L76304 35882
L76316 35870
L76340 35858
L76388 35846
L76448 35846
L76496 35858
L76520 35870
L76532 35882
L76544 35906
L76544 35930
L76532 35954
L76520 35966
L76496 35978
L76448 35990
L76388 35990
L76340 35978
L76316 35966
L76304 35954
L76292 35930
" />
<path d="M76448 35738
L76448 35546
" />
<path d="M76544 35294
L76544 35438
" />
<path d="M76544 35366
L76292 35366
L76328 35390
L76352 35414
L76364 35438
" />
<path d="M76292 35138
L76292 35114
L76304 35090
L76316 35078
L76340 35066
L76388 35054
L76448 35054
L76496 35066
L76520 35078
L76532 35090
L76544 35114
L76544 35138
L76532 35162
L76520 35174
L76496 35186
L76448 35198
L76388 35198
L76340 35186
L76316 35174
L76304 35162
L76292 35138
" />
<path d="M76292 34970
L76292 34802
L76544 34910
" />
<path d="M76412 34622
L76412 34706
" />
<path d="M76544 34706
L76292 34706
L76292 34586
" />
<path d="M75044 39272
L74792 39272
L74792 39212
L74804 39176
L74828 39152
L74852 39140
L74900 39128
L74936 39128
L74984 39140
L75008 39152
L75032 39176
L75044 39212
L75044 39272
" />
<path d="M74816 39032
L74804 39020
L74792 38996
L74792 38936
L74804 38912
L74816 38900
L74840 38888
L74864 38888
L74900 38900
L75044 39044
L75044 38888
" />
<path d="M76292 40366
L76292 40486
L76412 40498
L76400 40486
L76388 40462
L76388 40402
L76400 40378
L76412 40366
L76436 40354
L76496 40354
L76520 40366
L76532 40378
L76544 40402
L76544 40462
L76532 40486
L76520 40498
" />
<path d="M76544 40234
L76544 40186
L76532 40162
L76520 40150
L76484 40126
L76436 40114
L76340 40114
L76316 40126
L76304 40138
L76292 40162
L76292 40210
L76304 40234
L76316 40246
L76340 40258
L76400 40258
L76424 40246
L76436 40234
L76448 40210
L76448 40162
L76436 40138
L76424 40126
L76400 40114
" />
<path d="M76400 39970
L76388 39994
L76376 40006
L76352 40018
L76340 40018
L76316 40006
L76304 39994
L76292 39970
L76292 39922
L76304 39898
L76316 39886
L76340 39874
L76352 39874
L76376 39886
L76388 39898
L76400 39922
L76400 39970
L76412 39994
L76424 40006
L76448 40018
L76496 40018
L76520 40006
L76532 39994
L76544 39970
L76544 39922
L76532 39898
L76520 39886
L76496 39874
L76448 39874
L76424 39886
L76412 39898
L76400 39922
" />
<path d="M76448 39766
L76448 39574
" />
<path d="M76400 39418
L76388 39442
L76376 39454
L76352 39466
L76340 39466
L76316 39454
L76304 39442
L76292 39418
L76292 39370
L76304 39346
L76316 39334
L76340 39322
L76352 39322
L76376 39334
L76388 39346
L76400 39370
L76400 39418
L76412 39442
L76424 39454
L76448 39466
L76496 39466
L76520 39454
L76532 39442
L76544 39418
L76544 39370
L76532 39346
L76520 39334
L76496 39322
L76448 39322
L76424 39334
L76412 39346
L76400 39370
" />
<path d="M76292 39166
L76292 39142
L76304 39118
L76316 39106
L76340 39094
L76388 39082
L76448 39082
L76496 39094
L76520 39106
L76532 39118
L76544 39142
L76544 39166
L76532 39190
L76520 39202
L76496 39214
L76448 39226
L76388 39226
L76340 39214
L76316 39202
L76304 39190
L76292 39166
" />
<path d="M76544 38842
L76544 38986
" />
<path d="M76544 38914
L76292 38914
L76328 38938
L76352 38962
L76364 38986
" />
<path d="M76292 38686
L76292 38662
L76304 38638
L76316 38626
L76340 38614
L76388 38602
L76448 38602
L76496 38614
L76520 38626
L76532 38638
L76544 38662
L76544 38686
L76532 38710
L76520 38722
L76496 38734
L76448 38746
L76388 38746
L76340 38734
L76316 38722
L76304 38710
L76292 38686
" />
<path d="M76448 38494
L76448 38302
" />
<path d="M76544 38050
L76544 38194
" />
<path d="M76544 38122
L76292 38122
L76328 38146
L76352 38170
L76364 38194
" />
<path d="M76292 37894
L76292 37870
L76304 37846
L76316 37834
L76340 37822
L76388 37810
L76448 37810
L76496 37822
L76520 37834
L76532 37846
L76544 37870
L76544 37894
L76532 37918
L76520 37930
L76496 37942
L76448 37954
L76388 37954
L76340 37942
L76316 37930
L76304 37918
L76292 37894
" />
<path d="M76292 37726
L76292 37558
L76544 37666
" />
<path d="M76412 37378
L76412 37462
" />
<path d="M76544 37462
L76292 37462
L76292 37342
" />
<path d="M75044 42028
L74792 42028
L74792 41968
L74804 41932
L74828 41908
L74852 41896
L74900 41884
L74936 41884
L74984 41896
L75008 41908
L75032 41932
L75044 41968
L75044 42028
" />
<path d="M75044 41644
L75044 41788
" />
<path d="M75044 41716
L74792 41716
L74828 41740
L74852 41764
L74864 41788
" />
<path d="M76292 43122
L76292 43242
L76412 43254
L76400 43242
L76388 43218
L76388 43158
L76400 43134
L76412 43122
L76436 43110
L76496 43110
L76520 43122
L76532 43134
L76544 43158
L76544 43218
L76532 43242
L76520 43254
" />
<path d="M76544 42990
L76544 42942
L76532 42918
L76520 42906
L76484 42882
L76436 42870
L76340 42870
L76316 42882
L76304 42894
L76292 42918
L76292 42966
L76304 42990
L76316 43002
L76340 43014
L76400 43014
L76424 43002
L76436 42990
L76448 42966
L76448 42918
L76436 42894
L76424 42882
L76400 42870
" />
<path d="M76400 42726
L76388 42750
L76376 42762
L76352 42774
L76340 42774
L76316 42762
L76304 42750
L76292 42726
L76292 42678
L76304 42654
L76316 42642
L76340 42630
L76352 42630
L76376 42642
L76388 42654
L76400 42678
L76400 42726
L76412 42750
L76424 42762
L76448 42774
L76496 42774
L76520 42762
L76532 42750
L76544 42726
L76544 42678
L76532 42654
L76520 42642
L76496 42630
L76448 42630
L76424 42642
L76412 42654
L76400 42678
" />
<path d="M76448 42522
L76448 42330
" />
<path d="M76400 42174
L76388 42198
L76376 42210
L76352 42222
L76340 42222
L76316 42210
L76304 42198
L76292 42174
L76292 42126
L76304 42102
L76316 42090
L76340 42078
L76352 42078
L76376 42090
L76388 42102
L76400 42126
L76400 42174
L76412 42198
L76424 42210
L76448 42222
L76496 42222
L76520 42210
L76532 42198
L76544 42174
L76544 42126
L76532 42102
L76520 42090
L76496 42078
L76448 42078
L76424 42090
L76412 42102
L76400 42126
" />
<path d="M76292 41922
L76292 41898
L76304 41874
L76316 41862
L76340 41850
L76388 41838
L76448 41838
L76496 41850
L76520 41862
L76532 41874
L76544 41898
L76544 41922
L76532 41946
L76520 41958
L76496 41970
L76448 41982
L76388 41982
L76340 41970
L76316 41958
L76304 41946
L76292 41922
" />
<path d="M76544 41598
L76544 41742
" />
<path d="M76544 41670
L76292 41670
L76328 41694
L76352 41718
L76364 41742
" />
<path d="M76292 41442
L76292 41418
L76304 41394
L76316 41382
L76340 41370
L76388 41358
L76448 41358
L76496 41370
L76520 41382
L76532 41394
L76544 41418
L76544 41442
L76532 41466
L76520 41478
L76496 41490
L76448 41502
L76388 41502
L76340 41490
L76316 41478
L76304 41466
L76292 41442
" />
<path d="M76448 41250
L76448 41058
" />
<path d="M76544 40806
L76544 40950
" />
<path d="M76544 40878
L76292 40878
L76328 40902
L76352 40926
L76364 40950
" />
<path d="M76292 40650
L76292 40626
L76304 40602
L76316 40590
L76340 40578
L76388 40566
L76448 40566
L76496 40578
L76520 40590
L76532 40602
L76544 40626
L76544 40650
L76532 40674
L76520 40686
L76496 40698
L76448 40710
L76388 40710
L76340 40698
L76316 40686
L76304 40674
L76292 40650
" />
<path d="M76292 40482
L76292 40314
L76544 40422
" />
<path d="M76412 40134
L76412 40218
" />
<path d="M76544 40218
L76292 40218
L76292 40098
" />
<path d="M79537 38958
L79549 38970
L79561 39005
L79561 39029
L79549 39064
L79526 39088
L79502 39100
L79455 39112
L79419 39112
L79372 39100
L79348 39088
L79325 39064
L79313 39029
L79313 39005
L79325 38970
L79336 38958
" />
<path d="M79313 38875
L79313 38722
L79407 38805
L79407 38769
L79419 38745
L79431 38734
L79455 38722
L79514 38722
L79537 38734
L79549 38745
L79561 38769
L79561 38840
L79549 38864
L79537 38875
" />
<path d="M78119 41232
L78131 41244
L78142 41280
L78142 41303
L78131 41339
L78107 41363
L78083 41374
L78036 41386
L78001 41386
L77953 41374
L77930 41363
L77906 41339
L77894 41303
L77894 41280
L77906 41244
L77918 41232
" />
<path d="M77906 40996
L77894 41020
L77894 41055
L77906 41091
L77930 41114
L77953 41126
L78001 41138
L78036 41138
L78083 41126
L78107 41114
L78131 41091
L78142 41055
L78142 41031
L78131 40996
L78119 40984
L78036 40984
L78036 41031
" />
<path d="M78071 40890
L78071 40771
" />
<path d="M78142 40913
L77894 40830
L78142 40748
" />
<path d="M77977 40558
L78142 40558
" />
<path d="M77882 40618
L78060 40677
L78060 40523
" />
<path d="M78012 40346
L78012 40428
" />
<path d="M78142 40428
L77894 40428
L77894 40310
" />
<path d="M77977 40109
L78142 40109
" />
<path d="M77882 40168
L78060 40227
L78060 40074
" />
<path d="M77894 40003
L78142 39837
" />
<path d="M77894 39837
L78142 40003
" />
<path d="M77894 39766
L77894 39601
L78142 39707
" />
<path d="M77894 39542
L77894 39400
" />
<path d="M78142 39471
L77894 39471
" />
<path d="M77918 39329
L77906 39317
L77894 39293
L77894 39234
L77906 39210
L77918 39199
L77941 39187
L77965 39187
L78001 39199
L78142 39340
L78142 39187
" />
<path d="M77894 39104
L78142 39045
L77965 38998
L78142 38950
L77894 38891
" />
<path d="M78142 38666
L78142 38808
" />
<path d="M78142 38737
L77894 38737
L77930 38761
L77953 38785
L77965 38808
" />
<path d="M77894 38513
L77894 38489
L77906 38465
L77918 38454
L77941 38442
L77989 38430
L78048 38430
L78095 38442
L78119 38454
L78131 38465
L78142 38489
L78142 38513
L78131 38536
L78119 38548
L78095 38560
L78048 38572
L77989 38572
L77941 38560
L77918 38548
L77906 38536
L77894 38513
" />
<path d="M77894 38347
L77894 38193
L77989 38276
L77989 38241
L78001 38217
L78012 38205
L78036 38193
L78095 38193
L78119 38205
L78131 38217
L78142 38241
L78142 38312
L78131 38335
L78119 38347
" />
<path d="M78142 38087
L77894 38087
L78071 38004
L77894 37922
L78142 37922
" />
<path d="M77894 37756
L77894 37732
L77906 37709
L77918 37697
L77941 37685
L77989 37673
L78048 37673
L78095 37685
L78119 37697
L78131 37709
L78142 37732
L78142 37756
L78131 37780
L78119 37791
L78095 37803
L78048 37815
L77989 37815
L77941 37803
L77918 37791
L77906 37780
L77894 37756
" />
<path d="M78001 37531
L77989 37555
L77977 37567
L77953 37579
L77941 37579
L77918 37567
L77906 37555
L77894 37531
L77894 37484
L77906 37460
L77918 37449
L77941 37437
L77953 37437
L77977 37449
L77989 37460
L78001 37484
L78001 37531
L78012 37555
L78024 37567
L78048 37579
L78095 37579
L78119 37567
L78131 37555
L78142 37531
L78142 37484
L78131 37460
L78119 37449
L78095 37437
L78048 37437
L78024 37449
L78012 37460
L78001 37484
" />
<path d="M77894 37212
L77894 37330
L78012 37342
L78001 37330
L77989 37307
L77989 37248
L78001 37224
L78012 37212
L78036 37200
L78095 37200
L78119 37212
L78131 37224
L78142 37248
L78142 37307
L78131 37330
L78119 37342
" />
<path d="M78071 37106
L78071 36987
" />
<path d="M78142 37129
L77894 37046
L78142 36964
" />
<path d="M78012 36881
L78012 36798
" />
<path d="M78142 36763
L78142 36881
L77894 36881
L77894 36763
" />
<path d="M79537 36202
L79549 36214
L79561 36250
L79561 36273
L79549 36309
L79526 36332
L79502 36344
L79455 36356
L79419 36356
L79372 36344
L79348 36332
L79325 36309
L79313 36273
L79313 36250
L79325 36214
L79336 36202
" />
<path d="M79336 36108
L79325 36096
L79313 36072
L79313 36013
L79325 35990
L79336 35978
L79360 35966
L79384 35966
L79419 35978
L79561 36120
L79561 35966
" />
<path d="M78119 38477
L78131 38488
L78142 38524
L78142 38547
L78131 38583
L78107 38607
L78083 38618
L78036 38630
L78001 38630
L77953 38618
L77930 38607
L77906 38583
L77894 38547
L77894 38524
L77906 38488
L77918 38477
" />
<path d="M77906 38240
L77894 38264
L77894 38299
L77906 38335
L77930 38358
L77953 38370
L78001 38382
L78036 38382
L78083 38370
L78107 38358
L78131 38335
L78142 38299
L78142 38276
L78131 38240
L78119 38228
L78036 38228
L78036 38276
" />
<path d="M78071 38134
L78071 38015
" />
<path d="M78142 38157
L77894 38074
L78142 37992
" />
<path d="M77977 37803
L78142 37803
" />
<path d="M77882 37862
L78060 37921
L78060 37767
" />
<path d="M78012 37590
L78012 37672
" />
<path d="M78142 37672
L77894 37672
L77894 37554
" />
<path d="M77977 37353
L78142 37353
" />
<path d="M77882 37412
L78060 37471
L78060 37318
" />
<path d="M77894 37247
L78142 37081
" />
<path d="M77894 37081
L78142 37247
" />
<path d="M77894 37010
L77894 36845
L78142 36951
" />
<path d="M77894 36786
L77894 36644
" />
<path d="M78142 36715
L77894 36715
" />
<path d="M77918 36573
L77906 36561
L77894 36537
L77894 36478
L77906 36455
L77918 36443
L77941 36431
L77965 36431
L78001 36443
L78142 36585
L78142 36431
" />
<path d="M77894 36348
L78142 36289
L77965 36242
L78142 36194
L77894 36135
" />
<path d="M78142 35911
L78142 36052
" />
<path d="M78142 35982
L77894 35982
L77930 36005
L77953 36029
L77965 36052
" />
<path d="M77894 35757
L77894 35733
L77906 35710
L77918 35698
L77941 35686
L77989 35674
L78048 35674
L78095 35686
L78119 35698
L78131 35710
L78142 35733
L78142 35757
L78131 35781
L78119 35792
L78095 35804
L78048 35816
L77989 35816
L77941 35804
L77918 35792
L77906 35781
L77894 35757
" />
<path d="M77894 35591
L77894 35438
L77989 35520
L77989 35485
L78001 35461
L78012 35449
L78036 35438
L78095 35438
L78119 35449
L78131 35461
L78142 35485
L78142 35556
L78131 35579
L78119 35591
" />
<path d="M78142 35331
L77894 35331
L78071 35248
L77894 35166
L78142 35166
" />
<path d="M77894 35000
L77894 34976
L77906 34953
L77918 34941
L77941 34929
L77989 34917
L78048 34917
L78095 34929
L78119 34941
L78131 34953
L78142 34976
L78142 35000
L78131 35024
L78119 35036
L78095 35047
L78048 35059
L77989 35059
L77941 35047
L77918 35036
L77906 35024
L77894 35000
" />
<path d="M78001 34775
L77989 34799
L77977 34811
L77953 34823
L77941 34823
L77918 34811
L77906 34799
L77894 34775
L77894 34728
L77906 34704
L77918 34693
L77941 34681
L77953 34681
L77977 34693
L77989 34704
L78001 34728
L78001 34775
L78012 34799
L78024 34811
L78048 34823
L78095 34823
L78119 34811
L78131 34799
L78142 34775
L78142 34728
L78131 34704
L78119 34693
L78095 34681
L78048 34681
L78024 34693
L78012 34704
L78001 34728
" />
<path d="M77894 34456
L77894 34574
L78012 34586
L78001 34574
L77989 34551
L77989 34492
L78001 34468
L78012 34456
L78036 34444
L78095 34444
L78119 34456
L78131 34468
L78142 34492
L78142 34551
L78131 34574
L78119 34586
" />
<path d="M78071 34350
L78071 34231
" />
<path d="M78142 34373
L77894 34291
L78142 34208
" />
<path d="M78012 34125
L78012 34042
" />
<path d="M78142 34007
L78142 34125
L77894 34125
L77894 34007
" />
<path d="M79537 41714
L79549 41726
L79561 41761
L79561 41785
L79549 41820
L79526 41844
L79502 41856
L79455 41868
L79419 41868
L79372 41856
L79348 41844
L79325 41820
L79313 41785
L79313 41761
L79325 41726
L79336 41714
" />
<path d="M79561 41478
L79561 41620
" />
<path d="M79561 41549
L79313 41549
L79348 41572
L79372 41596
L79384 41620
" />
<path d="M78119 43988
L78131 44000
L78142 44036
L78142 44059
L78131 44095
L78107 44118
L78083 44130
L78036 44142
L78001 44142
L77953 44130
L77930 44118
L77906 44095
L77894 44059
L77894 44036
L77906 44000
L77918 43988
" />
<path d="M77906 43752
L77894 43775
L77894 43811
L77906 43846
L77930 43870
L77953 43882
L78001 43894
L78036 43894
L78083 43882
L78107 43870
L78131 43846
L78142 43811
L78142 43787
L78131 43752
L78119 43740
L78036 43740
L78036 43787
" />
<path d="M78071 43645
L78071 43527
" />
<path d="M78142 43669
L77894 43586
L78142 43504
" />
<path d="M77977 43314
L78142 43314
" />
<path d="M77882 43373
L78060 43433
L78060 43279
" />
<path d="M78012 43101
L78012 43184
" />
<path d="M78142 43184
L77894 43184
L77894 43066
" />
<path d="M77977 42865
L78142 42865
" />
<path d="M77882 42924
L78060 42983
L78060 42830
" />
<path d="M77894 42759
L78142 42593
" />
<path d="M77894 42593
L78142 42759
" />
<path d="M77894 42522
L77894 42357
L78142 42463
" />
<path d="M77894 42297
L77894 42156
" />
<path d="M78142 42226
L77894 42226
" />
<path d="M77918 42085
L77906 42073
L77894 42049
L77894 41990
L77906 41966
L77918 41954
L77941 41943
L77965 41943
L78001 41954
L78142 42096
L78142 41943
" />
<path d="M77894 41860
L78142 41801
L77965 41753
L78142 41706
L77894 41647
" />
<path d="M78142 41422
L78142 41564
" />
<path d="M78142 41493
L77894 41493
L77930 41517
L77953 41541
L77965 41564
" />
<path d="M77894 41269
L77894 41245
L77906 41221
L77918 41210
L77941 41198
L77989 41186
L78048 41186
L78095 41198
L78119 41210
L78131 41221
L78142 41245
L78142 41269
L78131 41292
L78119 41304
L78095 41316
L78048 41328
L77989 41328
L77941 41316
L77918 41304
L77906 41292
L77894 41269
" />
<path d="M77894 41103
L77894 40949
L77989 41032
L77989 40997
L78001 40973
L78012 40961
L78036 40949
L78095 40949
L78119 40961
L78131 40973
L78142 40997
L78142 41068
L78131 41091
L78119 41103
" />
<path d="M78142 40843
L77894 40843
L78071 40760
L77894 40677
L78142 40677
" />
<path d="M77894 40512
L77894 40488
L77906 40465
L77918 40453
L77941 40441
L77989 40429
L78048 40429
L78095 40441
L78119 40453
L78131 40465
L78142 40488
L78142 40512
L78131 40536
L78119 40547
L78095 40559
L78048 40571
L77989 40571
L77941 40559
L77918 40547
L77906 40536
L77894 40512
" />
<path d="M78001 40287
L77989 40311
L77977 40323
L77953 40335
L77941 40335
L77918 40323
L77906 40311
L77894 40287
L77894 40240
L77906 40216
L77918 40204
L77941 40193
L77953 40193
L77977 40204
L77989 40216
L78001 40240
L78001 40287
L78012 40311
L78024 40323
L78048 40335
L78095 40335
L78119 40323
L78131 40311
L78142 40287
L78142 40240
L78131 40216
L78119 40204
L78095 40193
L78048 40193
L78024 40204
L78012 40216
L78001 40240
" />
<path d="M77894 39968
L77894 40086
L78012 40098
L78001 40086
L77989 40063
L77989 40003
L78001 39980
L78012 39968
L78036 39956
L78095 39956
L78119 39968
L78131 39980
L78142 40003
L78142 40063
L78131 40086
L78119 40098
" />
<path d="M78071 39862
L78071 39743
" />
<path d="M78142 39885
L77894 39802
L78142 39720
" />
<path d="M78012 39637
L78012 39554
" />
<path d="M78142 39519
L78142 39637
L77894 39637
L77894 39519
" />
</g>
<g style="fill:#000000; fill-opacity:0.0; 
stroke:#000000; stroke-width:59.0551; stroke-opacity:1; 
stroke-linecap:round; stroke-linejoin:round;">
<path d="M92034 43583
L91902 43396
" />
<path d="M91809 43583
L91809 43189
L91959 43189
L91996 43208
L92015 43227
L92034 43264
L92034 43321
L92015 43358
L91996 43377
L91959 43396
L91809 43396
" />
<path d="M92202 43377
L92334 43377
" />
<path d="M92390 43583
L92202 43583
L92202 43189
L92390 43189
" />
<path d="M92690 43377
L92559 43377
" />
<path d="M92559 43583
L92559 43189
L92746 43189
" />
<path d="M92952 43189
L92952 43283
" />
<path d="M92859 43246
L92952 43283
L93046 43246
" />
<path d="M92896 43358
L92952 43283
L93008 43358
" />
<path d="M93252 43189
L93252 43283
" />
<path d="M93158 43246
L93252 43283
L93346 43246
" />
<path d="M93196 43358
L93252 43283
L93308 43358
" />
<path d="M92034 32559
L91902 32372
" />
<path d="M91809 32559
L91809 32166
L91959 32166
L91996 32185
L92015 32203
L92034 32241
L92034 32297
L92015 32335
L91996 32353
L91959 32372
L91809 32372
" />
<path d="M92202 32353
L92334 32353
" />
<path d="M92390 32559
L92202 32559
L92202 32166
L92390 32166
" />
<path d="M92690 32353
L92559 32353
" />
<path d="M92559 32559
L92559 32166
L92746 32166
" />
<path d="M92952 32166
L92952 32260
" />
<path d="M92859 32222
L92952 32260
L93046 32222
" />
<path d="M92896 32335
L92952 32260
L93008 32335
" />
<path d="M93252 32166
L93252 32260
" />
<path d="M93158 32222
L93252 32260
L93346 32222
" />
<path d="M93196 32335
L93252 32260
L93308 32335
" />
<path d="M31034 32559
L30902 32372
" />
<path d="M30809 32559
L30809 32166
L30959 32166
L30996 32185
L31015 32203
L31034 32241
L31034 32297
L31015 32335
L30996 32353
L30959 32372
L30809 32372
" />
<path d="M31202 32353
L31334 32353
" />
<path d="M31390 32559
L31202 32559
L31202 32166
L31390 32166
" />
<path d="M31690 32353
L31559 32353
" />
<path d="M31559 32559
L31559 32166
L31746 32166
" />
<path d="M31952 32166
L31952 32260
" />
<path d="M31859 32222
L31952 32260
L32046 32222
" />
<path d="M31896 32335
L31952 32260
L32008 32335
" />
<path d="M32252 32166
L32252 32260
" />
<path d="M32158 32222
L32252 32260
L32346 32222
" />
<path d="M32196 32335
L32252 32260
L32308 32335
" />
<g >
</g>
</g>
<g style="fill:#000000; fill-opacity:0.0; 
stroke:#000000; stroke-width:19.685; stroke-opacity:1; 
stroke-linecap:round; stroke-linejoin:round;">
<circle cx="27559.1" cy="46456.7" r="656.168" /> 
<path d="M26574 46456
L28543 46456
" />
<path d="M27559 45472
L27559 47440
" />
<path d="M28740.2 27559.1 A1181.1 1181.1 0.0 0 0 27559.1 28740.2 " />
<path d="M27559.1 45275.6 A1181.1 1181.1 0.0 0 0 28740.2 46456.7 " />
<path d="M93307.1 46456.7 A1181.1 1181.1 0.0 0 0 94488.2 45275.6 " />
<path d="M94488.2 28740.2 A1181.1 1181.1 0.0 0 0 93307.1 27559.1 " />
<path d="M27559 45275
L27559 28740
" />
<path d="M93307 46456
L28740 46456
" />
<path d="M94488 28740
L94488 45275
" />
<path d="M28740 27559
L93307 27559
" />
<g >
</g>
<g >
</g>
<g >
</g>
<g >
</g>
<g >
</g>
<g >
</g>
<g >
</g>
<g >
</g>
<g >
</g>
<g >
</g>
<g >
</g>
<g >
</g>
<g >
</g>
<g >
</g>
<g >
</g>
<g >
</g>
<g >
</g>
</g> 
</svg>
